<svg xmlns="http://www.w3.org/2000/svg" viewBox="0 0 30 30" enable-background="new 0 0 30 30"><path d="M19.5 15a4.5 4.5 0 0 1-4.5 4.5 4.5 4.5 0 0 1-4.5-4.5 4.5 4.5 0 0 1 4.5-4.5 4.5 4.5 0 0 1 4.5 4.5zm4.5 0a9 9 0 0 1-9 9 9 9 0 0 1-9-9 9 9 0 0 1 9-9 9 9 0 0 1 9 9z" fill="none" stroke="#fff"/><path d="M21.36 8.64l-3.18 3.18A4.5 4.5 0 0 1 19.5 15a4.5 4.5 0 0 1-.814 2.58l3.683 2.578A9 9 0 0 0 24 15a9 9 0 0 0-2.64-6.36z" fill="none" stroke="#fff"/><path d="M16.422 19.264A4.5 4.5 0 0 1 15 19.5a4.5 4.5 0 0 1-1.422-.234l-1.422 4.265A9 9 0 0 0 15 24a9 9 0 0 0 2.842-.473l-1.42-4.263z" fill="none" stroke="#fff"/><path d="M11.658 6.646A9 9 0 0 0 6 15a9 9 0 0 0 .148 1.61l4.426-.805A4.5 4.5 0 0 1 10.5 15a4.5 4.5 0 0 1 2.83-4.176l-1.672-4.178z" fill="none" fill-rule="evenodd" stroke="#fff"/></svg>